<?xml version="1.0" encoding="UTF-8"?>
<!-- Generator: Adobe Illustrator 14.0.0, SVG Export Plug-In . SVG Version: 6.00 Build 43363)  -->
<!DOCTYPE svg PUBLIC "-//W3C//DTD SVG 1.1//EN" "http://www.w3.org/Graphics/SVG/1.1/DTD/svg11.dtd">
<svg version="1.1" id="Livello_1" xmlns="http://www.w3.org/2000/svg" xmlns:xlink="http://www.w3.org/1999/xlink" x="0px" y="0px" width="62.249px" height="19.573px" viewBox="0 0 62.249 19.573" enable-background="new 0 0 62.249 19.573" xml:space="preserve">
<g>
	<defs>
		<rect id="SVGID_1_" x="0" width="62.249" height="19.573"/>
	</defs>
	<clipPath id="SVGID_2_">
		<use xlink:href="#SVGID_1_" overflow="visible"/>
	</clipPath>
	<polygon clip-path="url(#SVGID_2_)" fill="#B1C800" points="24.404,0 29.488,0 28.695,3.497  "/>
	<polygon clip-path="url(#SVGID_2_)" fill="#B1C800" points="14.058,0 23.036,0 20.669,5.316  "/>
	<polygon clip-path="url(#SVGID_2_)" fill="#0082A4" points="20.669,5.316 10.826,3.031 14.058,0  "/>
	<polygon clip-path="url(#SVGID_2_)" fill="#007F97" points="2.113,0 10.826,3.031 9.366,9.41  "/>
	<polygon clip-path="url(#SVGID_2_)" fill="#63AE25" points="20.669,12.267 16.322,12.267 20.669,5.316  "/>
	<polygon clip-path="url(#SVGID_2_)" fill="#37A2B7" points="9.366,9.41 10.826,3.031 20.669,5.316  "/>
	<polygon clip-path="url(#SVGID_2_)" fill="#8FBC13" points="16.322,12.267 9.366,9.41 20.669,5.316  "/>
	<polygon clip-path="url(#SVGID_2_)" fill="#0095D7" points="9.366,9.41 6.595,14.871 0.348,10.03  "/>
	<polygon clip-path="url(#SVGID_2_)" fill="#37A2B7" points="10.909,15.62 10.217,12.254 12.947,15.79  "/>
	<polygon clip-path="url(#SVGID_2_)" fill="#B1C800" points="57.996,0 63.08,0 62.287,3.497  "/>
	<polygon clip-path="url(#SVGID_2_)" fill="#8FBC13" points="56.628,0 57.996,0 62.287,3.497 54.262,5.316  "/>
	<polygon clip-path="url(#SVGID_2_)" fill="#0072BA" points="45.442,0 49.587,0 46.235,3.497  "/>
	<polygon clip-path="url(#SVGID_2_)" fill="#8FBC13" points="54.262,5.316 46.235,3.497 49.587,0 50.918,0  "/>
	<polygon clip-path="url(#SVGID_2_)" fill="#63AE25" points="37.568,0 43.941,0 42.958,9.41  "/>
	<polygon clip-path="url(#SVGID_2_)" fill="#007F97" points="66.65,6.749 60.682,12.222 54.262,5.316  "/>
	<polygon clip-path="url(#SVGID_2_)" fill="#0088CD" points="42.958,9.41 46.235,3.496 54.262,5.316  "/>
	<polygon clip-path="url(#SVGID_2_)" fill="#63AE25" points="49.52,14.134 42.958,9.41 52.465,8.188  "/>
	<polygon clip-path="url(#SVGID_2_)" fill="#37A2B7" points="31.536,0 37.349,0 33.059,6.748  "/>
	<polygon clip-path="url(#SVGID_2_)" fill="#8FBC13" points="43.941,0 45.442,0 46.235,3.496 42.958,9.41  "/>
	<polygon clip-path="url(#SVGID_2_)" fill="#007F97" points="28.695,3.496 33.059,6.748 20.669,5.316  "/>
	<polygon clip-path="url(#SVGID_2_)" fill="#37A2B7" points="33.059,6.748 25.016,12.267 20.669,5.316  "/>
	<polygon clip-path="url(#SVGID_2_)" fill="#8FBC13" points="42.958,9.41 40.187,14.871 33.059,6.748  "/>
	<polygon clip-path="url(#SVGID_2_)" fill="#0082A4" points="33.033,8.392 33.182,15.618 25.701,17.708  "/>
	<polygon clip-path="url(#SVGID_2_)" fill="#63AE25" points="28.695,3.496 29.487,0 31.536,0 33.059,6.748  "/>
	<polygon clip-path="url(#SVGID_2_)" fill="#0095D7" points="62.287,3.497 66.65,6.749 54.262,5.316  "/>
	<polygon clip-path="url(#SVGID_2_)" fill="#37A2B7" points="43.658,15.021 43.248,11.609 45.676,15.36  "/>
	<polygon clip-path="url(#SVGID_2_)" fill="#37A2B7" points="2.053,4.06 4.448,6.523 0.244,5.013  "/>
</g>
</svg>